<svg width="28" height="28" viewBox="0 0 28 28" fill="none" xmlns="http://www.w3.org/2000/svg" class="custom-svg" style="width: 40px; height: 40px;"><path d="M22.75 4.375H5.25C4.78587 4.375 4.34075 4.55937 4.01256 4.88756C3.68437 5.21575 3.5 5.66087 3.5 6.125V12.553C3.5 22.3552 11.7928 25.6058 13.4531 26.157C13.8076 26.2784 14.1924 26.2784 14.5469 26.157C16.2094 25.6047 24.5 22.3541 24.5 12.5519V6.125C24.5 5.66087 24.3156 5.21575 23.9874 4.88756C23.6592 4.55937 23.2141 4.375 22.75 4.375ZM22.75 12.5552C22.75 21.1323 15.4941 23.998 14 24.4967C12.5202 24.0045 5.25 21.1411 5.25 12.5552V6.125H22.75V12.5552ZM9.625 14C9.625 13.7679 9.71719 13.5454 9.88128 13.3813C10.0454 13.2172 10.2679 13.125 10.5 13.125H13.125V10.5C13.125 10.2679 13.2172 10.0454 13.3813 9.88128C13.5454 9.71719 13.7679 9.625 14 9.625C14.2321 9.625 14.4546 9.71719 14.6187 9.88128C14.7828 10.0454 14.875 10.2679 14.875 10.5V13.125H17.5C17.7321 13.125 17.9546 13.2172 18.1187 13.3813C18.2828 13.5454 18.375 13.7679 18.375 14C18.375 14.2321 18.2828 14.4546 18.1187 14.6187C17.9546 14.7828 17.7321 14.875 17.5 14.875H14.875V17.5C14.875 17.7321 14.7828 17.9546 14.6187 18.1187C14.4546 18.2828 14.2321 18.375 14 18.375C13.7679 18.375 13.5454 18.2828 13.3813 18.1187C13.2172 17.9546 13.125 17.7321 13.125 17.5V14.875H10.5C10.2679 14.875 10.0454 14.7828 9.88128 14.6187C9.71719 14.4546 9.625 14.2321 9.625 14Z" fill="#FF9D2E"></path></svg>