<svg width="29" height="28" viewBox="0 0 29 28" fill="none" xmlns="http://www.w3.org/2000/svg" class="custom-svg" style="width: 40px; height: 40px;"><path d="M10.5625 15.3125C10.3029 15.3125 10.0492 15.2355 9.83332 15.0913C9.61748 14.9471 9.44925 14.7421 9.34991 14.5023C9.25057 14.2624 9.22458 13.9985 9.27522 13.7439C9.32587 13.4893 9.45087 13.2555 9.63443 13.0719C9.81798 12.8884 10.0518 12.7634 10.3064 12.7127C10.561 12.6621 10.8249 12.6881 11.0648 12.7874C11.3046 12.8867 11.5096 13.055 11.6538 13.2708C11.798 13.4867 11.875 13.7404 11.875 14C11.875 14.3481 11.7367 14.6819 11.4906 14.9281C11.2444 15.1742 10.9106 15.3125 10.5625 15.3125ZM18.4375 12.6875C18.1779 12.6875 17.9242 12.7645 17.7083 12.9087C17.4925 13.0529 17.3243 13.2579 17.2249 13.4977C17.1256 13.7376 17.0996 14.0015 17.1502 14.2561C17.2009 14.5107 17.3259 14.7445 17.5094 14.9281C17.693 15.1116 17.9268 15.2366 18.1814 15.2873C18.436 15.3379 18.6999 15.3119 18.9398 15.2126C19.1796 15.1133 19.3846 14.945 19.5288 14.7292C19.673 14.5133 19.75 14.2596 19.75 14C19.75 13.6519 19.6117 13.3181 19.3656 13.0719C19.1194 12.8258 18.7856 12.6875 18.4375 12.6875ZM17.0955 17.6345C16.3162 18.1182 15.4172 18.3745 14.5 18.3745C13.5828 18.3745 12.6838 18.1182 11.9045 17.6345C11.7082 17.5107 11.4706 17.4699 11.2442 17.5212C11.0177 17.5724 10.8209 17.7116 10.697 17.908C10.5732 18.1044 10.5324 18.3419 10.5837 18.5683C10.635 18.7948 10.7741 18.9916 10.9705 19.1155C12.0294 19.7756 13.2522 20.1255 14.5 20.1255C15.7478 20.1255 16.9706 19.7756 18.0295 19.1155C18.2259 18.9916 18.3651 18.7948 18.4163 18.5683C18.4676 18.3419 18.4268 18.1044 18.303 17.908C18.1791 17.7116 17.9823 17.5724 17.7559 17.5212C17.5294 17.4699 17.2919 17.5107 17.0955 17.6345ZM25.875 14C25.875 16.2498 25.2079 18.449 23.958 20.3196C22.7081 22.1902 20.9315 23.6482 18.853 24.5091C16.7745 25.3701 14.4874 25.5953 12.2809 25.1564C10.0743 24.7175 8.04749 23.6342 6.45667 22.0433C4.86584 20.4525 3.78248 18.4257 3.34357 16.2192C2.90467 14.0126 3.12993 11.7255 3.99088 9.64698C4.85182 7.56847 6.30978 5.79193 8.18039 4.54203C10.051 3.29213 12.2502 2.625 14.5 2.625C17.5159 2.62818 20.4073 3.82764 22.5398 5.96018C24.6724 8.09271 25.8718 10.9841 25.875 14ZM24.125 14C24.122 11.5223 23.1647 9.14091 21.452 7.35042C19.7393 5.55992 17.4028 4.49789 14.9277 4.38484C13.66 6.16656 13.625 7.86188 13.625 7.875C13.625 8.10706 13.7172 8.32962 13.8813 8.49372C14.0454 8.65781 14.2679 8.75 14.5 8.75C14.7321 8.75 14.9546 8.65781 15.1187 8.49372C15.2828 8.32962 15.375 8.10706 15.375 7.875C15.375 7.64294 15.4672 7.42038 15.6313 7.25628C15.7954 7.09219 16.0179 7 16.25 7C16.4821 7 16.7046 7.09219 16.8687 7.25628C17.0328 7.42038 17.125 7.64294 17.125 7.875C17.125 8.57119 16.8484 9.23887 16.3562 9.73116C15.8639 10.2234 15.1962 10.5 14.5 10.5C13.8038 10.5 13.1361 10.2234 12.6438 9.73116C12.1516 9.23887 11.875 8.57119 11.875 7.875C11.875 7.79516 11.8892 6.31094 12.8003 4.52484C10.9982 4.84816 9.3257 5.67877 7.97904 6.9192C6.63239 8.15962 5.66747 9.75841 5.1975 11.528C4.72753 13.2975 4.77202 15.1644 5.32574 16.9095C5.87946 18.6547 6.91945 20.2057 8.32366 21.3805C9.72787 22.5554 11.438 23.3054 13.2535 23.5425C15.069 23.7796 16.9144 23.494 18.5733 22.7192C20.2321 21.9444 21.6356 20.7125 22.6189 19.1681C23.6023 17.6237 24.1247 15.8309 24.125 14Z" fill="#FF9D2E"></path></svg>