<svg width="28" height="28" viewBox="0 0 28 28" fill="none" xmlns="http://www.w3.org/2000/svg" class="custom-svg" style="width: 40px; height: 40px;"><path d="M22.4615 13.1797H21.1954C21.0465 12.6688 20.6878 12.2181 20.1676 11.9603L16.3059 10.0468L14.2976 6.56212C16.1567 6.55397 17.6667 5.0855 17.6667 3.28125C17.6667 1.47197 16.1483 0 14.2821 0C12.0391 0 10.4014 2.09366 11.0323 4.19617C6.49625 4.83295 3 8.62673 3 13.1979V22.2031C3 22.6562 3.37885 23.0234 3.84615 23.0234H5.53846V27.125C5.53846 27.578 5.91731 27.9453 6.38462 27.9453H13.1538C13.6211 27.9453 14 27.578 14 27.125V14.2303L16.6257 15.0007C16.5011 15.4513 16.5385 14.6419 16.5385 27.1797C16.5385 27.6327 16.9173 28 17.3846 28C17.8519 28 18.2308 27.6327 18.2308 27.1797V24.7188H23.3077V27.1797C23.3077 27.6327 23.6865 28 24.1538 28C24.6211 28 25 27.6327 25 27.1797V15.6406C25 14.2837 23.8612 13.1797 22.4615 13.1797ZM14.2821 1.64062C15.2152 1.64062 15.9744 2.37661 15.9744 3.28125C15.9744 4.18589 15.2152 4.92188 14.2821 4.92188C13.3489 4.92188 12.5897 4.18589 12.5897 3.28125C12.5897 2.37661 13.3489 1.64062 14.2821 1.64062ZM7.23077 23.0234H8.92308V26.3047H7.23077V23.0234ZM10.6154 26.3047V23.0234H12.3077V26.3047H10.6154ZM13.7115 12.4315L11.341 8.60136C11.1006 8.21286 10.5807 8.08686 10.1801 8.31999C9.77933 8.55307 9.64942 9.05696 9.88984 9.44546L12.3077 13.3522V21.3828H4.69231V13.1979C4.69231 9.24563 7.88073 6.00179 11.895 5.75701C15.2111 11.5109 14.9905 11.2375 15.3073 11.3945L19.3974 13.4212C19.7618 13.6017 19.5371 14.1408 19.146 14.026L13.7115 12.4315ZM18.2308 23.0781C18.2308 15.0844 18.2225 15.5988 18.248 15.4766L18.6557 15.5962C19.519 15.8495 20.4316 15.5199 20.9218 14.8203H22.4615C22.9281 14.8203 23.3077 15.1883 23.3077 15.6406V23.0781H18.2308Z" fill="#FF9D2E"></path></svg>