<svg width="29" height="28" viewBox="0 0 29 28" fill="none" xmlns="http://www.w3.org/2000/svg" class="custom-svg" style="width: 40px; height: 40px;"><path d="M14.5 2.625C12.2502 2.625 10.051 3.29213 8.18039 4.54203C6.30978 5.79193 4.85182 7.56847 3.99088 9.64698C3.12993 11.7255 2.90467 14.0126 3.34357 16.2192C3.78248 18.4257 4.86584 20.4525 6.45667 22.0433C8.04749 23.6342 10.0743 24.7175 12.2809 25.1564C14.4874 25.5953 16.7745 25.3701 18.853 24.5091C20.9315 23.6482 22.7081 22.1902 23.958 20.3196C25.2079 18.449 25.875 16.2498 25.875 14C25.8718 10.9841 24.6724 8.09271 22.5398 5.96018C20.4073 3.82764 17.5159 2.62818 14.5 2.625ZM14.5 23.625C12.5964 23.625 10.7355 23.0605 9.15264 22.0029C7.56982 20.9453 6.33616 19.4421 5.60766 17.6833C4.87917 15.9246 4.68856 13.9893 5.05995 12.1223C5.43133 10.2552 6.34802 8.54018 7.6941 7.1941C9.04018 5.84802 10.7552 4.93132 12.6223 4.55994C14.4893 4.18856 16.4246 4.37917 18.1833 5.10766C19.9421 5.83615 21.4453 7.06981 22.5029 8.65264C23.5605 10.2355 24.125 12.0964 24.125 14C24.1221 16.5518 23.1071 18.9983 21.3027 20.8027C19.4983 22.6071 17.0518 23.6221 14.5 23.625ZM21.2441 13.3809C21.3254 13.4622 21.3899 13.5587 21.4338 13.665C21.4778 13.7712 21.5005 13.885 21.5005 14C21.5005 14.115 21.4778 14.2288 21.4338 14.335C21.3899 14.4413 21.3254 14.5378 21.2441 14.6191C21.1628 14.7004 21.0663 14.7648 20.96 14.8088C20.8538 14.8528 20.74 14.8755 20.625 14.8755C20.51 14.8755 20.3962 14.8528 20.29 14.8088C20.1838 14.7648 20.0872 14.7004 20.0059 14.6191L18.875 13.487L17.7441 14.6191C17.5799 14.7832 17.3572 14.8755 17.125 14.8755C16.8928 14.8755 16.6701 14.7832 16.5059 14.6191C16.3418 14.4549 16.2495 14.2322 16.2495 14C16.2495 13.7678 16.3418 13.5451 16.5059 13.3809L17.638 12.25L16.5059 11.1191C16.3418 10.9549 16.2495 10.7322 16.2495 10.5C16.2495 10.2678 16.3418 10.0451 16.5059 9.88094C16.6701 9.71675 16.8928 9.62451 17.125 9.62451C17.3572 9.62451 17.5799 9.71675 17.7441 9.88094L18.875 11.013L20.0059 9.88094C20.0872 9.79964 20.1838 9.73515 20.29 9.69116C20.3962 9.64716 20.51 9.62451 20.625 9.62451C20.74 9.62451 20.8538 9.64716 20.96 9.69116C21.0663 9.73515 21.1628 9.79964 21.2441 9.88094C21.3254 9.96223 21.3899 10.0587 21.4338 10.165C21.4778 10.2712 21.5005 10.385 21.5005 10.5C21.5005 10.615 21.4778 10.7288 21.4338 10.835C21.3899 10.9413 21.3254 11.0378 21.2441 11.1191L20.112 12.25L21.2441 13.3809ZM12.4941 11.1191L11.362 12.25L12.4941 13.3809C12.6583 13.5451 12.7505 13.7678 12.7505 14C12.7505 14.2322 12.6583 14.4549 12.4941 14.6191C12.3299 14.7832 12.1072 14.8755 11.875 14.8755C11.6428 14.8755 11.4201 14.7832 11.2559 14.6191L10.125 13.487L8.99407 14.6191C8.82988 14.7832 8.6072 14.8755 8.375 14.8755C8.14281 14.8755 7.92013 14.7832 7.75594 14.6191C7.59176 14.4549 7.49952 14.2322 7.49952 14C7.49952 13.7678 7.59176 13.5451 7.75594 13.3809L8.88797 12.25L7.75594 11.1191C7.59176 10.9549 7.49952 10.7322 7.49952 10.5C7.49952 10.2678 7.59176 10.0451 7.75594 9.88094C7.92013 9.71675 8.14281 9.62451 8.375 9.62451C8.6072 9.62451 8.82988 9.71675 8.99407 9.88094L10.125 11.013L11.2559 9.88094C11.4201 9.71675 11.6428 9.62451 11.875 9.62451C12.1072 9.62451 12.3299 9.71675 12.4941 9.88094C12.6583 10.0451 12.7505 10.2678 12.7505 10.5C12.7505 10.7322 12.6583 10.9549 12.4941 11.1191ZM15.8125 19.6875C15.8125 19.9471 15.7355 20.2008 15.5913 20.4167C15.4471 20.6325 15.2421 20.8008 15.0023 20.9001C14.7624 20.9994 14.4985 21.0254 14.2439 20.9748C13.9893 20.9241 13.7555 20.7991 13.5719 20.6156C13.3884 20.432 13.2634 20.1982 13.2127 19.9436C13.1621 19.689 13.1881 19.4251 13.2874 19.1852C13.3868 18.9454 13.555 18.7404 13.7708 18.5962C13.9867 18.452 14.2404 18.375 14.5 18.375C14.8481 18.375 15.1819 18.5133 15.4281 18.7594C15.6742 19.0056 15.8125 19.3394 15.8125 19.6875Z" fill="#FF9D2E"></path></svg>