<svg width="28" height="28" viewBox="0 0 28 28" fill="none" xmlns="http://www.w3.org/2000/svg" class="custom-svg" style="width: 40px; height: 40px;"><path d="M27.9544 20.7215C27.9181 20.6125 27.8606 20.5117 27.7854 20.4249C27.7101 20.3381 27.6184 20.2669 27.5156 20.2155C27.4128 20.1641 27.3009 20.1335 27.1863 20.1254C27.0717 20.1172 26.9566 20.1317 26.8476 20.1681L24.9422 20.8035L21.7813 14.4817C21.7086 14.3365 21.597 14.2143 21.4589 14.129C21.3208 14.0436 21.1616 13.9983 20.9993 13.9982H12.2493V11.3732H18.3743C18.6063 11.3732 18.8289 11.281 18.993 11.117C19.1571 10.9529 19.2493 10.7303 19.2493 10.4982C19.2493 10.2662 19.1571 10.0436 18.993 9.87952C18.8289 9.71542 18.6063 9.62324 18.3743 9.62324H12.2493V8.63886C13.0741 8.42589 13.7929 7.91941 14.2711 7.21435C14.7492 6.5093 14.9537 5.65407 14.8464 4.80899C14.739 3.9639 14.3272 3.18697 13.688 2.62383C13.0488 2.06069 12.2262 1.75 11.3743 1.75C10.5224 1.75 9.69976 2.06069 9.06057 2.62383C8.42138 3.18697 8.00951 3.9639 7.90217 4.80899C7.79483 5.65407 7.99939 6.5093 8.4775 7.21435C8.95561 7.91941 9.67445 8.42589 10.4993 8.63886V9.8212C8.61262 10.2524 6.95082 11.3632 5.83103 12.9417C4.71125 14.5201 4.21191 16.4557 4.42831 18.3788C4.64472 20.302 5.56172 22.0781 7.00428 23.3682C8.44685 24.6584 10.314 25.3721 12.2493 25.3732C15.9155 25.3732 19.2154 22.8893 20.0969 19.467C20.1257 19.3557 20.1322 19.2398 20.1161 19.1259C20.1001 19.0121 20.0617 18.9026 20.0033 18.8035C19.9449 18.7045 19.8676 18.618 19.7758 18.5488C19.6839 18.4797 19.5793 18.4293 19.468 18.4006C19.3567 18.3719 19.2408 18.3653 19.127 18.3814C19.0132 18.3975 18.9036 18.4358 18.8046 18.4942C18.7055 18.5526 18.619 18.6299 18.5499 18.7218C18.4807 18.8136 18.4303 18.9182 18.4016 19.0295C17.7279 21.6545 15.0832 23.6232 12.2493 23.6232C10.7784 23.6227 9.35682 23.093 8.24436 22.1307C7.1319 21.1685 6.40287 19.838 6.19051 18.3825C5.97815 16.9271 6.29665 15.4438 7.08778 14.2038C7.87892 12.9638 9.08986 12.0499 10.4993 11.6292V14.8732C10.4993 15.1053 10.5915 15.3279 10.7556 15.492C10.9197 15.656 11.1422 15.7482 11.3743 15.7482H20.4579L23.7161 22.2648C23.8106 22.4531 23.9697 22.601 24.1644 22.6813C24.3591 22.7617 24.5763 22.7691 24.776 22.7023L27.401 21.8273C27.6209 21.7539 27.8027 21.5962 27.9065 21.3889C28.0103 21.1816 28.0275 20.9415 27.9544 20.7215ZM9.62428 5.24824C9.62428 4.90212 9.72691 4.56377 9.9192 4.27599C10.1115 3.9882 10.3848 3.7639 10.7046 3.63145C11.0243 3.49899 11.3762 3.46434 11.7157 3.53186C12.0552 3.59939 12.367 3.76606 12.6117 4.0108C12.8565 4.25554 13.0231 4.56736 13.0906 4.90683C13.1582 5.24629 13.1235 5.59816 12.9911 5.91793C12.8586 6.2377 12.6343 6.51101 12.3465 6.70331C12.0587 6.8956 11.7204 6.99824 11.3743 6.99824C10.9101 6.99824 10.465 6.81386 10.1368 6.48567C9.80865 6.15748 9.62428 5.71236 9.62428 5.24824Z" fill="#FF9D2E"></path></svg>