<svg width="29" height="28" viewBox="0 0 29 28" fill="none" xmlns="http://www.w3.org/2000/svg" class="custom-svg" style="width: 40px; height: 40px;"><path d="M15.375 11.8125C15.375 11.2068 15.1954 10.6147 14.8589 10.1111C14.5224 9.60744 14.0441 9.21491 13.4845 8.98312C12.9249 8.75133 12.3091 8.69068 11.715 8.80884C11.121 8.92701 10.5753 9.21869 10.147 9.64699C9.71869 10.0753 9.42701 10.621 9.30884 11.215C9.19068 11.8091 9.25133 12.4249 9.48312 12.9845C9.71491 13.5441 10.1074 14.0224 10.6111 14.3589C11.1147 14.6954 11.7068 14.875 12.3125 14.875C13.1247 14.875 13.9037 14.5523 14.478 13.978C15.0523 13.4037 15.375 12.6247 15.375 11.8125ZM12.3125 13.125C12.0529 13.125 11.7992 13.048 11.5833 12.9038C11.3675 12.7596 11.1992 12.5546 11.0999 12.3148C11.0006 12.0749 10.9746 11.811 11.0252 11.5564C11.0759 11.3018 11.2009 11.068 11.3844 10.8844C11.568 10.7009 11.8018 10.5759 12.0564 10.5252C12.311 10.4746 12.5749 10.5006 12.8148 10.5999C13.0546 10.6992 13.2596 10.8675 13.4038 11.0833C13.548 11.2992 13.625 11.5529 13.625 11.8125C13.625 12.1606 13.4867 12.4944 13.2406 12.7406C12.9944 12.9867 12.6606 13.125 12.3125 13.125ZM19.75 12.25C20.0961 12.25 20.4345 12.3526 20.7222 12.5449C21.01 12.7372 21.2343 13.0105 21.3668 13.3303C21.4992 13.6501 21.5339 14.0019 21.4664 14.3414C21.3988 14.6809 21.2322 14.9927 20.9874 15.2374C20.7427 15.4822 20.4309 15.6489 20.0914 15.7164C19.7519 15.7839 19.4001 15.7492 19.0803 15.6168C18.7605 15.4843 18.4872 15.26 18.2949 14.9722C18.1026 14.6845 18 14.3461 18 14C18 13.5359 18.1844 13.0908 18.5126 12.7626C18.8408 12.4344 19.2859 12.25 19.75 12.25ZM16.25 19.25C16.25 19.5961 16.1474 19.9345 15.9551 20.2222C15.7628 20.51 15.4895 20.7343 15.1697 20.8668C14.8499 20.9992 14.4981 21.0339 14.1586 20.9664C13.8191 20.8988 13.5073 20.7322 13.2626 20.4874C13.0178 20.2427 12.8511 19.9309 12.7836 19.5914C12.7161 19.2519 12.7508 18.9001 12.8832 18.5803C13.0157 18.2605 13.24 17.9872 13.5278 17.7949C13.8155 17.6026 14.1539 17.5 14.5 17.5C14.9641 17.5 15.4092 17.6844 15.7374 18.0126C16.0656 18.3408 16.25 18.7859 16.25 19.25ZM26.75 13.125H24.9628C24.7827 10.9506 23.9263 8.88718 22.5139 7.22422L23.8691 5.86906C24.0332 5.70488 24.1255 5.48219 24.1255 5.25C24.1255 5.01781 24.0332 4.79512 23.8691 4.63094C23.7049 4.46675 23.4822 4.37451 23.25 4.37451C23.0178 4.37451 22.7951 4.46675 22.6309 4.63094L21.2812 5.98609C19.6168 4.57261 17.5513 3.71619 15.375 3.53719V1.75C15.375 1.51794 15.2828 1.29538 15.1187 1.13128C14.9546 0.967187 14.7321 0.875 14.5 0.875C14.2679 0.875 14.0454 0.967187 13.8813 1.13128C13.7172 1.29538 13.625 1.51794 13.625 1.75V3.53719C11.4506 3.71731 9.38718 4.57366 7.72422 5.98609L6.36906 4.63094C6.20488 4.46675 5.98219 4.37451 5.75 4.37451C5.51781 4.37451 5.29512 4.46675 5.13094 4.63094C4.96675 4.79512 4.87451 5.01781 4.87451 5.25C4.87451 5.48219 4.96675 5.70488 5.13094 5.86906L6.48609 7.22422C5.07261 8.88867 4.21619 10.9542 4.03719 13.1305H2.25C2.01794 13.1305 1.79538 13.2227 1.63128 13.3868C1.46719 13.5508 1.375 13.7734 1.375 14.0055C1.375 14.2375 1.46719 14.4601 1.63128 14.6242C1.79538 14.7883 2.01794 14.8805 2.25 14.8805H4.03719C4.21731 17.0549 5.07366 19.1183 6.48609 20.7812L5.13094 22.1309C4.96675 22.2951 4.87451 22.5178 4.87451 22.75C4.87451 22.9822 4.96675 23.2049 5.13094 23.3691C5.29512 23.5332 5.51781 23.6255 5.75 23.6255C5.98219 23.6255 6.20488 23.5332 6.36906 23.3691L7.72422 22.0139C9.38867 23.4274 11.4542 24.2838 13.6305 24.4628V26.25C13.6305 26.4821 13.7227 26.7046 13.8868 26.8687C14.0508 27.0328 14.2734 27.125 14.5055 27.125C14.7375 27.125 14.9601 27.0328 15.1242 26.8687C15.2883 26.7046 15.3805 26.4821 15.3805 26.25V24.4628C17.5549 24.2827 19.6183 23.4263 21.2812 22.0139L22.6364 23.3691C22.8006 23.5332 23.0233 23.6255 23.2555 23.6255C23.4877 23.6255 23.7103 23.5332 23.8745 23.3691C24.0387 23.2049 24.131 22.9822 24.131 22.75C24.131 22.5178 24.0387 22.2951 23.8745 22.1309L22.5139 20.7812C23.9274 19.1168 24.7838 17.0513 24.9628 14.875H26.75C26.9821 14.875 27.2046 14.7828 27.3687 14.6187C27.5328 14.4546 27.625 14.2321 27.625 14C27.625 13.7679 27.5328 13.5454 27.3687 13.3813C27.2046 13.2172 26.9821 13.125 26.75 13.125ZM14.5 22.75C12.7694 22.75 11.0777 22.2368 9.63876 21.2754C8.19983 20.3139 7.07832 18.9473 6.41605 17.3485C5.75379 15.7496 5.58051 13.9903 5.91813 12.293C6.25575 10.5956 7.08911 9.03652 8.31282 7.81282C9.53652 6.58911 11.0956 5.75575 12.793 5.41813C14.4903 5.08051 16.2496 5.25379 17.8485 5.91605C19.4473 6.57832 20.8139 7.69983 21.7754 9.13876C22.7368 10.5777 23.25 12.2694 23.25 14C23.2474 16.3198 22.3247 18.5439 20.6843 20.1843C19.0439 21.8247 16.8198 22.7474 14.5 22.75Z" fill="#FF9D2E"></path></svg>