<svg width="29" height="28" viewBox="0 0 29 28" fill="none" xmlns="http://www.w3.org/2000/svg" class="custom-svg" style="width: 40px; height: 40px;"><path d="M23.2567 20.125H17.1251C16.893 20.125 16.6705 20.2172 16.5064 20.3813C16.3423 20.5454 16.2501 20.7679 16.2501 21V22.3125C16.2501 23.3575 16.6652 24.3597 17.4042 25.0987C18.1431 25.8376 19.1453 26.2527 20.1903 26.2527C21.2353 26.2527 22.2376 25.8376 22.9765 25.0987C23.7154 24.3597 24.1306 23.3575 24.1306 22.3125V21C24.1306 20.7681 24.0385 20.5457 23.8747 20.3817C23.7108 20.2176 23.4885 20.1253 23.2567 20.125ZM22.3817 22.3125C22.3817 22.8927 22.1512 23.4491 21.741 23.8593C21.3307 24.2695 20.7743 24.5 20.1942 24.5C19.614 24.5 19.0576 24.2695 18.6474 23.8593C18.2371 23.4491 18.0067 22.8927 18.0067 22.3125V21.875H22.3817V22.3125ZM11.8751 17.5H5.75009C5.51803 17.5 5.29547 17.5922 5.13138 17.7563C4.96728 17.9204 4.87509 18.1429 4.87509 18.375V19.6875C4.87509 20.7318 5.28994 21.7333 6.02836 22.4717C6.76679 23.2102 7.7683 23.625 8.81259 23.625C9.85688 23.625 10.8584 23.2102 11.5968 22.4717C12.3353 21.7333 12.7501 20.7318 12.7501 19.6875V18.375C12.7501 18.1429 12.6579 17.9204 12.4938 17.7563C12.3297 17.5922 12.1072 17.5 11.8751 17.5ZM11.0001 19.6875C11.0001 20.2677 10.7696 20.8241 10.3594 21.2343C9.94915 21.6445 9.39276 21.875 8.81259 21.875C8.23243 21.875 7.67603 21.6445 7.2658 21.2343C6.85556 20.8241 6.62509 20.2677 6.62509 19.6875V19.25H11.0001V19.6875ZM8.81259 1.75C7.53947 1.75 6.30463 2.87766 5.33447 4.92188C3.81088 8.13531 3.30447 12.9062 5.36619 15.4219C5.4484 15.5222 5.55189 15.603 5.66917 15.6585C5.78645 15.7139 5.91459 15.7425 6.04431 15.7423H11.5732C11.7029 15.7425 11.8311 15.7139 11.9484 15.6585C12.0656 15.603 12.1691 15.5222 12.2513 15.4219C14.3131 12.9062 13.8067 8.13203 12.2831 4.92188C11.3118 2.87766 10.0781 1.75 8.81259 1.75ZM11.1259 14H6.49166C5.24478 12.0203 5.70306 8.23594 6.91713 5.67547C7.62478 4.18031 8.39369 3.5 8.81259 3.5C9.2315 3.5 9.99603 4.18031 10.7048 5.67547C11.9145 8.23594 12.3728 12.0203 11.1259 14ZM17.427 18.375H22.9559C23.0856 18.3752 23.2137 18.3465 23.331 18.2911C23.4483 18.2357 23.5518 18.1549 23.634 18.0545C25.6957 15.5389 25.1893 10.7647 23.6657 7.55453C22.6956 5.50266 21.4607 4.375 20.1876 4.375C18.9145 4.375 17.684 5.50266 16.7127 7.54688C15.1892 10.7603 14.6828 15.5312 16.7445 18.0469C16.8267 18.1489 16.9306 18.2313 17.0486 18.2881C17.1667 18.3448 17.296 18.3745 17.427 18.375ZM18.302 8.30047C19.0085 6.80531 19.7774 6.125 20.1876 6.125C20.5977 6.125 21.371 6.80531 22.0787 8.30047C23.2927 10.8609 23.751 14.6442 22.5053 16.625H17.8743C16.6274 14.6453 17.0857 10.8609 18.2998 8.30047H18.302Z" fill="#FF9D2E"></path></svg>