<svg width="29" height="28" viewBox="0 0 29 28" fill="none" xmlns="http://www.w3.org/2000/svg" class="custom-svg" style="width: 40px; height: 40px;"><mask id="mask0_15764_61356" maskUnits="userSpaceOnUse" x="0" y="0" width="29" height="28" style="mask-type: luminance;"><path d="M0.5 1.90735e-06H28.5V28H0.5V1.90735e-06Z" fill="#ffffff"></path></mask><g mask="url(#mask0_15764_61356)"><path d="M6.2644 23.9045L14.4909 24.9689C14.9823 25.0328 16.0304 25.3285 17.2748 24.919L25.3978 22.2445C27.1604 21.5671 26.5323 19.2833 24.3833 19.591L23.7866 19.6848L17.5615 20.8206L13.5481 20.7999M16.1032 20.8131C17.5615 20.8206 18.2076 18.2639 15.5069 17.8092L12.5138 17.2421C11.8488 17.19 10.9798 17.3939 9.90091 17.7041L6.31206 18.7352" stroke="#FF9D2E" stroke-width="1.87326" stroke-miterlimit="10" stroke-linecap="round" stroke-linejoin="round"></path><path d="M6.25957 24.2423L6.31287 18.461C6.3166 18.0564 5.98919 17.7214 5.58312 17.7176L2.30193 17.6874C1.89734 17.6837 1.56381 18.0126 1.56008 18.4171L1.50678 24.1985C1.50305 24.6031 1.83047 24.9366 2.23506 24.9404L5.51625 24.9706C5.92232 24.9744 6.25584 24.6469 6.25957 24.2423Z" stroke="#FF9D2E" stroke-width="1.87326" stroke-miterlimit="10" stroke-linecap="round" stroke-linejoin="round"></path><path d="M4.25718 3.55119C4.8969 10.5261 15.1145 11.0309 13.1211 6.6891C17.5855 3.45622 7.99237 -0.490231 4.25718 3.55119Z" stroke="#FF9D2E" stroke-width="1.87326" stroke-miterlimit="10" stroke-linecap="round" stroke-linejoin="round"></path><path d="M15.5666 11.3253C15.5938 8.37602 14.2907 6.63734 10.0014 5.19272" stroke="#FF9D2E" stroke-width="1.87326" stroke-miterlimit="10" stroke-linecap="round" stroke-linejoin="round"></path><path d="M26.9036 3.76092C26.1354 10.7229 15.9087 11.0391 17.9819 6.73485C13.5794 3.42021 23.2436 -0.348687 26.9036 3.76092Z" stroke="#FF9D2E" stroke-width="1.87326" stroke-miterlimit="10" stroke-linecap="round" stroke-linejoin="round"></path><path d="M15.5391 14.3828L15.5672 11.3269C15.5944 8.3777 16.9293 6.66329 21.2446 5.29804" stroke="#FF9D2E" stroke-width="1.87326" stroke-miterlimit="10" stroke-linecap="round" stroke-linejoin="round"></path><path d="M10.0846 17.6529C13.3507 11.7633 21.4781 14.5654 21.2191 20.1536" stroke="#FF9D2E" stroke-width="1.87326" stroke-miterlimit="10" stroke-linecap="round" stroke-linejoin="round"></path></g></svg>