<svg xmlns="http://www.w3.org/2000/svg" viewBox="0 0 24 24">
  <path d="M5.5,18c-0.384,0-0.768-0.146-1.061-0.439l-4-4c-0.586-0.586-0.586-1.535,0-2.121s1.535-0.586,2.121,0L5.5,14.379l8.939-8.939c0.586-0.586,1.535-0.586,2.121,0s0.586,1.535,0,2.121l-10,10C6.268,17.854,5.884,18,5.5,18z" opacity=".35" fill="#24A955" />
  <path d="M12.5,18c-0.384,0-0.768-0.146-1.061-0.439l-4-4c-0.586-0.586-0.586-1.535,0-2.121s1.535-0.586,2.121,0l2.939,2.939l8.939-8.939c0.586-0.586,1.535-0.586,2.121,0s0.586,1.535,0,2.121l-10,10C13.268,17.854,12.884,18,12.5,18z" fill="#24A955" />
</svg>