
<svg width="18" height="14" viewBox="0 0 18 14" fill="none" xmlns="http://www.w3.org/2000/svg">
<path d="M1.22727 13.7516H4.09092V6.79709L2.21576 3.52271L0 3.7289V12.5244C0 13.2024 0.549211 13.7516 1.22727 13.7516Z" fill="#0085F7"/>
<path d="M13.9062 13.7516H16.7699C17.448 13.7516 17.9972 13.2024 17.9972 12.5244V3.7289L15.7846 3.52271L13.9063 6.79709V13.7516H13.9062Z" fill="#00A94B"/>
<path d="M13.9087 1.47886L12.2266 4.68873L13.9087 6.79705L17.9996 3.72886V2.09251C17.9996 0.575801 16.2681 -0.290449 15.0541 0.619782L13.9087 1.47886Z" fill="#FFBC00"/>
<path fill-rule="evenodd" clip-rule="evenodd" d="M4.08725 6.79695L2.48438 3.41105L4.08725 1.47876L8.99633 5.16057L13.9054 1.47876V6.79695L8.99633 10.4788L4.08725 6.79695Z" fill="#FF4131"/>
<path d="M0 2.09251V3.72886L4.09092 6.79705V1.47886L2.94546 0.619782C1.73148 -0.290449 0 0.575801 0 2.09251Z" fill="#E51C19"/>
</svg>
