
<svg width="40" height="40" viewBox="0 0 40 40" fill="none" xmlns="http://www.w3.org/2000/svg">
<rect width="40" height="40" rx="20" fill="#81D230"/>
<path d="M28.7985 15.7961C29.8392 17.9728 30.0368 20.4579 29.3531 22.7717C28.6693 25.0855 27.1527 27.064 25.096 28.3253C23.0393 29.5867 20.5883 30.0416 18.2159 29.602C15.8436 29.1625 13.7182 27.8598 12.2498 25.9454C10.7815 24.0309 10.0743 21.6405 10.2649 19.2353C10.4554 16.8301 11.5301 14.5808 13.2815 12.9214C15.033 11.262 17.337 10.3102 19.7489 10.2497C22.1609 10.1891 24.5098 11.0242 26.3422 12.5936L28.4675 10.4674C28.6083 10.3267 28.7991 10.2476 28.9982 10.2476C29.1972 10.2476 29.3881 10.3267 29.5288 10.4674C29.6695 10.6081 29.7486 10.799 29.7486 10.998C29.7486 11.197 29.6695 11.3879 29.5288 11.5286L20.5288 20.5286C20.3881 20.6694 20.1972 20.7484 19.9982 20.7484C19.7991 20.7484 19.6083 20.6694 19.4675 20.5286C19.3268 20.3879 19.2477 20.197 19.2477 19.998C19.2477 19.799 19.3268 19.6081 19.4675 19.4674L22.0663 16.8686C21.362 16.4028 20.5211 16.1884 19.6798 16.26C18.8384 16.3315 18.0458 16.685 17.4304 17.2631C16.8149 17.8411 16.4125 18.61 16.2884 19.4452C16.1643 20.2805 16.3257 21.1331 16.7465 21.8652C17.1672 22.5973 17.8228 23.1659 18.607 23.4791C19.3911 23.7922 20.258 23.8315 21.0674 23.5907C21.8767 23.3498 22.581 22.8428 23.0663 22.1519C23.5517 21.4609 23.7896 20.6263 23.7416 19.7833C23.7361 19.6848 23.75 19.5862 23.7825 19.4931C23.8151 19.4 23.8657 19.3142 23.9314 19.2406C23.9972 19.1671 24.0767 19.1072 24.1656 19.0644C24.2545 19.0216 24.3509 18.9967 24.4494 18.9911C24.6483 18.9799 24.8435 19.0482 24.9921 19.181C25.0657 19.2467 25.1256 19.3263 25.1684 19.4151C25.2112 19.504 25.2361 19.6005 25.2416 19.6989C25.31 20.8922 24.9692 22.073 24.2755 23.0463C23.5818 24.0196 22.5768 24.7271 21.4266 25.0518C20.2764 25.3765 19.0498 25.2991 17.9495 24.8322C16.8493 24.3654 15.9413 23.5371 15.3755 22.4843C14.8098 21.4315 14.6203 20.2171 14.8382 19.042C15.0562 17.8668 15.6685 16.8012 16.5742 16.0213C17.4798 15.2413 18.6244 14.7937 19.8189 14.7524C21.0134 14.7112 22.1862 15.0787 23.1435 15.7943L25.2763 13.6614C23.7133 12.3638 21.7259 11.6893 19.696 11.7676C17.666 11.8459 15.7365 12.6714 14.2781 14.0856C12.8197 15.4999 11.9352 17.403 11.7945 19.4297C11.6538 21.4563 12.2669 23.4634 13.5159 25.0656C14.7649 26.6678 16.5618 27.752 18.5615 28.11C20.5612 28.468 22.6227 28.0746 24.35 27.0053C26.0773 25.9361 27.3486 24.2663 27.9198 22.3168C28.4911 20.3672 28.3218 18.2754 27.4447 16.443C27.3589 16.2635 27.348 16.0573 27.4143 15.8697C27.4805 15.6821 27.6186 15.5285 27.7982 15.4427C27.9777 15.3569 28.1839 15.346 28.3715 15.4122C28.5591 15.4785 28.7127 15.6166 28.7985 15.7961Z" fill="white"/>
</svg>
