<svg xmlns="http://www.w3.org/2000/svg" width="18" height="18" viewBox="0 0 18 18" fill="none">
<path fill-rule="evenodd" clip-rule="evenodd" d="M17.6705 15.8326C17.8815 15.6205 18 15.3334 18 15.0342C18 14.735 17.8815 14.4479 17.6705 14.2358L14.7797 11.3454C14.5675 11.1343 14.2803 11.0157 13.981 11.0157C13.6816 11.0157 13.3945 11.1343 13.1823 11.3454L12.3967 12.1313C12.1359 12.3944 11.797 12.5662 11.4306 12.6211C11.0642 12.676 10.6899 12.611 10.3635 12.4359C8.31917 11.3531 6.64718 9.68116 5.56415 7.63687C5.38901 7.3103 5.32399 6.93591 5.37877 6.5694C5.43355 6.2029 5.6052 5.86388 5.86817 5.60281L6.65522 4.81703C6.86624 4.60482 6.98469 4.31771 6.98469 4.01843C6.98469 3.71914 6.86624 3.43203 6.65522 3.21982L3.76437 0.329712C3.55217 0.118545 3.265 0 2.96564 0C2.66628 0 2.37911 0.118545 2.16691 0.329712C2.04743 0.448847 1.89629 0.59279 1.73464 0.745098C1.33042 1.1272 0.826102 1.60275 0.622229 1.90172C-0.451535 3.4732 0.0633963 5.57563 0.681995 7.06283C1.49916 9.02305 3.00519 11.159 4.92421 13.0768C6.8415 14.9944 8.97662 16.5007 10.9378 17.3179C12.4246 17.9374 14.5261 18.4511 16.0974 17.3775C16.3962 17.1734 16.8724 16.6703 17.2537 16.2655C17.4066 16.1042 17.5507 15.9517 17.6705 15.8326Z" fill="#48C331"/>
</svg>
