
<svg width="25" height="25" viewBox="0 0 25 25" fill="none" xmlns="http://www.w3.org/2000/svg">
<g clip-path="url(#clip0_34388_102840)">
<path d="M11.4955 18.691L7.46567 17.2974L6.57656 17.3879L4.65503 22.9087C4.5938 23.0846 4.73628 23.2644 4.92149 23.245L7.61499 22.9629C7.69024 22.9551 7.76504 22.9811 7.81914 23.034L9.75542 24.9275C9.88853 25.0577 10.1119 25.0052 10.173 24.8293L12.1072 19.2725L11.4955 18.691Z" fill="#FF4755"/>
<path d="M12.1087 19.2725L12.4995 18.1497L6.96777 16.2686L6.57812 17.388C8.14893 18.5089 10.0509 19.195 12.1087 19.2725Z" fill="#FC2B3A"/>
<path d="M13.5022 18.691L17.532 17.2974L18.4211 17.3879L20.3427 22.9087C20.4039 23.0846 20.2615 23.2644 20.0763 23.245L17.3828 22.9629C17.3075 22.9551 17.2327 22.9811 17.1787 23.034L15.2424 24.9275C15.1093 25.0577 14.8859 25.0052 14.8248 24.8293L12.8906 19.2725L13.5022 18.691Z" fill="#FF4755"/>
<path d="M12.8908 19.2725L12.5 18.1497L18.0317 16.2686L18.4214 17.388C16.8506 18.5089 14.9486 19.195 12.8908 19.2725Z" fill="#FC2B3A"/>
<path d="M12.4936 17.5507C3.43009 17.5507 3.42257 8.76895 3.43009 8.61743C3.66832 3.81807 7.63507 0 12.4936 0C17.3488 0 21.3135 3.81299 21.5566 8.60781C21.5644 8.7625 21.5566 17.5507 12.4936 17.5507Z" fill="#E0E0E0"/>
<path d="M12.4967 17.2346C7.63818 17.2346 3.67158 13.4166 3.4333 8.61719C3.42578 8.7687 3.42188 8.92119 3.42188 9.07456C3.42188 14.0864 7.48481 18.1494 12.4967 18.1494C17.5085 18.1494 21.5715 14.0864 21.5715 9.07456C21.5715 8.92114 21.5676 8.7687 21.5601 8.61719C21.3218 13.4166 17.3552 17.2346 12.4967 17.2346Z" fill="#CECECE"/>
<path d="M12.4947 15.6558C5.34565 15.6558 5.35049 8.76865 5.36006 8.61738C5.59595 4.88223 8.70005 1.92578 12.4947 1.92578C16.2893 1.92578 19.3934 4.88223 19.6293 8.61738C19.6389 8.76865 19.6293 15.6558 12.4947 15.6558Z" fill="#9E9E9E"/>
<path d="M12.4928 15.3088C8.69819 15.3088 5.59463 12.3522 5.35874 8.61719C5.34917 8.76846 5.34375 8.9209 5.34375 9.07456C5.34375 13.0229 8.54448 16.2236 12.4928 16.2236C16.4411 16.2236 19.6418 13.0229 19.6418 9.07456C19.6418 8.92085 19.6364 8.76846 19.6268 8.61719C19.3909 12.3522 16.2874 15.3088 12.4928 15.3088Z" fill="#898989"/>
<path d="M14.5519 13.3211H10.4541C9.95779 13.3211 9.57454 12.4571 9.61189 12.2596C9.71555 11.7113 9.95955 11.1946 10.3239 10.764L13.2071 7.35635C13.4769 7.0375 13.3565 6.69395 13.3132 6.59619C13.2605 6.47739 13.0967 6.19961 12.715 6.18672C12.704 6.18633 12.6925 6.18613 12.681 6.18613C12.1449 6.18613 11.7089 6.62227 11.7089 7.15835C11.7089 7.65469 11.3065 8.05708 10.8101 8.05708C10.3138 8.05708 9.9114 7.65474 9.9114 7.15835C9.9114 5.6312 11.1538 4.38867 12.681 4.38867C12.7126 4.38867 12.7441 4.38921 12.7754 4.39028C13.7309 4.42251 14.5665 4.98862 14.9563 5.86758C15.3519 6.75967 15.2074 7.775 14.5792 8.51738L11.696 11.925C11.6854 11.9375 11.675 11.9502 11.6649 11.9631H14.5519C14.881 11.9631 15.1688 12.14 15.3254 12.404C15.4049 12.538 15.0482 13.3211 14.5519 13.3211Z" fill="#E0E0E0"/>
<path d="M14.5512 12.8458H10.4534C10.0672 12.8458 9.73882 12.6017 9.61172 12.2598C9.57437 12.4573 9.55469 12.6587 9.55469 12.8619C9.55469 13.3583 9.95708 13.7606 10.4534 13.7606H14.5512C15.0475 13.7606 15.4499 13.3583 15.4499 12.8619C15.4499 12.6946 15.4034 12.5386 15.3238 12.4045C15.1672 12.6684 14.8803 12.8458 14.5512 12.8458Z" fill="#CECECE"/>
</g>
<defs>
<clipPath id="clip0_34388_102840">
<rect width="25" height="25" fill="white"/>
</clipPath>
</defs>
</svg>
