
<svg width="25" height="25" viewBox="0 0 25 25" fill="none" xmlns="http://www.w3.org/2000/svg">
<g clip-path="url(#clip0_34388_102869)">
<path d="M11.4225 18.6435L7.6751 17.3943L6.57656 17.3882L4.65503 22.9089C4.5938 23.0848 4.73628 23.2646 4.92149 23.2452L7.61499 22.9631C7.69024 22.9553 7.76504 22.9813 7.81914 23.0342L9.75542 24.9277C9.88853 25.0579 10.1119 25.0054 10.173 24.8295L12.1072 19.2727L11.4225 18.6435Z" fill="#FF4755"/>
<path d="M12.1087 19.2725L12.4995 18.1497L6.96777 16.2686L6.57812 17.388C8.14893 18.5089 10.0509 19.195 12.1087 19.2725Z" fill="#FC2B3A"/>
<path d="M13.5752 18.6435L17.3226 17.3943L18.4211 17.3882L20.3427 22.909C20.404 23.0848 20.2615 23.2646 20.0763 23.2452L17.3828 22.9632C17.3075 22.9553 17.2327 22.9813 17.1787 23.0342L15.2424 24.9277C15.1093 25.0579 14.8859 25.0054 14.8248 24.8296L12.8906 19.2727L13.5752 18.6435Z" fill="#FF4755"/>
<path d="M12.8908 19.2725L12.5 18.1497L18.0317 16.2686L18.4214 17.388C16.8506 18.5089 14.9486 19.195 12.8908 19.2725Z" fill="#FC2B3A"/>
<path d="M12.4936 17.3879C3.43009 17.3879 3.42257 8.76895 3.43009 8.61743C3.66832 3.81807 7.63507 0 12.4936 0C17.3521 0 21.3188 3.81807 21.557 8.61743C21.5646 8.76895 21.557 17.3879 12.4936 17.3879Z" fill="#C1785D"/>
<path d="M12.4967 17.2346C7.63818 17.2346 3.67158 13.4165 3.4333 8.61719C3.42578 8.7687 3.42188 8.92119 3.42188 9.07456C3.42188 14.0864 7.48481 18.1494 12.4967 18.1494C17.5085 18.1494 21.5715 14.0864 21.5715 9.07456C21.5715 8.92119 21.5676 8.7687 21.5601 8.61719C21.3218 13.4165 17.3552 17.2346 12.4967 17.2346Z" fill="#9F5E46"/>
<path d="M19.6418 9.0748C19.6418 12.136 16.4411 15.7844 12.4928 15.7844C8.54448 15.7844 5.34375 11.9353 5.34375 9.0748C5.34375 8.92114 5.34858 8.76865 5.35815 8.61738C5.59399 4.88223 8.69814 1.92578 12.4928 1.92578C16.2874 1.92578 19.3916 4.88223 19.6274 8.61738C19.637 8.76865 19.6418 8.92114 19.6418 9.0748Z" fill="#F59A78"/>
<path d="M12.4928 15.3088C8.69819 15.3088 5.59463 12.3522 5.35874 8.61719C5.34917 8.76846 5.34375 8.92085 5.34375 9.07456C5.34375 13.0229 8.54448 16.2236 12.4928 16.2236C16.4411 16.2236 19.6418 13.0229 19.6418 9.07456C19.6418 8.92085 19.6364 8.76846 19.6268 8.61719C19.3909 12.3522 16.2874 15.3088 12.4928 15.3088Z" fill="#EA764B"/>
<path d="M12.5032 13.3215C10.9635 13.3215 9.98384 12.2601 9.79526 11.0008C9.77813 10.8863 9.77271 10.6404 9.77271 10.6404C9.90381 10.3064 10.2291 10.0699 10.6096 10.0699C11.106 10.0699 11.5084 10.4722 11.5084 10.9686C11.5084 11.5172 11.9546 11.9635 12.5032 11.9635C13.0518 11.9635 13.4981 11.5172 13.4981 10.9686C13.4981 10.8037 13.4578 10.648 13.3865 10.5109C13.3865 10.5109 13.319 9.66343 12.5514 9.66343C11.7813 9.66343 11.7298 8.61714 11.7298 8.61714C11.8864 8.35322 12.1742 8.17632 12.5033 8.17632C13.0519 8.17632 13.4982 7.73003 13.4982 7.18145C13.4982 6.63286 13.0519 6.18657 12.5033 6.18657C11.9547 6.18657 11.5084 6.63286 11.5084 7.18145C11.5084 7.67783 11.106 8.08018 10.6097 8.08018C10.1133 8.08018 9.71094 7.67783 9.71094 7.18145C9.71094 5.6418 10.9636 4.38916 12.5032 4.38916C14.0429 4.38916 15.2956 5.6418 15.2956 7.18145C15.2956 7.91152 15.014 8.57695 14.5537 9.07505C14.9159 9.46694 15.1674 9.96245 15.2582 10.5115C15.2582 10.5115 15.261 10.8129 15.2349 10.9664C15.0121 12.276 14.0429 13.3215 12.5032 13.3215Z" fill="#DD724C"/>
<path d="M12.5002 9.0585C12.1711 9.0585 11.8842 8.88105 11.7276 8.61719C11.648 8.75127 11.6016 8.90732 11.6016 9.07456C11.6016 9.57095 12.0039 9.97329 12.5003 9.97329C12.8839 9.97329 13.2169 10.1919 13.3829 10.5108C13.4542 10.3737 13.4952 10.2184 13.4952 10.0535C13.4952 9.50478 13.0488 9.0585 12.5002 9.0585Z" fill="#B65837"/>
<path d="M12.5033 12.8458C11.1649 12.8458 10.0439 11.8991 9.77354 10.6404C9.73364 10.742 9.71094 10.8524 9.71094 10.9683C9.71094 12.508 10.9636 13.7606 12.5033 13.7606C14.043 13.7606 15.2956 12.508 15.2956 10.9683C15.2956 10.8125 15.2821 10.6601 15.2575 10.5112C15.0383 11.8338 13.8871 12.8458 12.5033 12.8458Z" fill="#B65837"/>
</g>
<defs>
<clipPath id="clip0_34388_102869">
<rect width="25" height="25" fill="white"/>
</clipPath>
</defs>
</svg>
