
<svg width="25" height="25" viewBox="0 0 25 25" fill="none" xmlns="http://www.w3.org/2000/svg">
<g clip-path="url(#clip0_34388_102808)">
<path d="M7.56773 17.3394L6.57661 17.3877L4.65503 22.9085C4.5938 23.0843 4.73628 23.2642 4.92149 23.2447L7.61499 22.9627C7.69024 22.9548 7.76504 22.9809 7.81914 23.0337L9.75542 24.9272C9.88853 25.0574 10.1119 25.0049 10.173 24.8291L12.1072 19.2722L11.5369 18.7187L7.56773 17.3394Z" fill="#FF4755"/>
<path d="M12.1087 19.2725L12.4995 18.1497L6.96777 16.2686L6.57812 17.388C8.14893 18.5089 10.0509 19.195 12.1087 19.2725Z" fill="#FC2B3A"/>
<path d="M17.43 17.3394L18.4211 17.3877L20.3427 22.9085C20.404 23.0843 20.2615 23.2642 20.0763 23.2447L17.3828 22.9627C17.3075 22.9548 17.2327 22.9809 17.1787 23.0337L15.2424 24.9272C15.1093 25.0574 14.8859 25.0049 14.8248 24.8291L12.8906 19.2722L13.4609 18.7187L17.43 17.3394Z" fill="#FF4755"/>
<path d="M12.8908 19.2725L12.5 18.1497L18.0317 16.2686L18.4214 17.388C16.8506 18.5089 14.9486 19.195 12.8908 19.2725Z" fill="#FC2B3A"/>
<path d="M12.4936 17.5838C3.41878 17.5838 3.42259 8.7689 3.43011 8.61738C3.66834 3.81807 7.63509 0 12.4936 0C17.3521 0 21.3188 3.81807 21.5571 8.61743C21.5646 8.76895 21.5684 17.5838 12.4936 17.5838Z" fill="#EFB32E"/>
<path d="M12.4967 17.2346C7.63818 17.2346 3.67158 13.4166 3.4333 8.61719C3.42578 8.7687 3.42188 8.92119 3.42188 9.07456C3.42188 14.0864 7.48481 18.1494 12.4967 18.1494C17.5085 18.1494 21.5715 14.0864 21.5715 9.07456C21.5715 8.92114 21.5676 8.7687 21.5601 8.61719C21.3218 13.4166 17.3552 17.2346 12.4967 17.2346Z" fill="#CB910E"/>
<path d="M12.4946 15.6311C5.36001 15.6311 5.35044 8.61533 5.36001 8.46406C5.59589 4.72891 8.7 1.77246 12.4946 1.77246C16.2893 1.77246 19.3934 4.72891 19.6292 8.46406C19.6388 8.61528 19.6292 15.6311 12.4946 15.6311Z" fill="#FFE3A4"/>
<path d="M12.4928 15.3088C8.69819 15.3088 5.59463 12.3523 5.35874 8.61719C5.34917 8.76846 5.34375 8.9209 5.34375 9.07456C5.34375 13.0229 8.54448 16.2236 12.4928 16.2236C16.4411 16.2236 19.6418 13.0229 19.6418 9.07456C19.6418 8.92085 19.6364 8.76846 19.6268 8.61719C19.3909 12.3523 16.2874 15.3088 12.4928 15.3088Z" fill="#FBCB5E"/>
<path d="M12.9019 13.3211C12.4055 13.3211 12.0031 12.9188 12.0031 12.4224V11.947V7.38569C12.0031 7.38569 11.4654 7.925 10.822 7.60142C10.3203 7.34912 10.3203 6.69976 10.3203 6.69976L11.4284 4.82935C11.5902 4.5562 11.8841 4.38867 12.2016 4.38867H12.9019C13.3982 4.38867 13.8006 4.79102 13.8006 5.2874V11.947V12.4224C13.8006 12.9188 13.3982 13.3211 12.9019 13.3211Z" fill="#F9BA2D"/>
<path d="M11.8802 6.67966C11.6417 7.08235 11.1345 7.25695 10.7115 7.05652C10.5403 6.97541 10.4083 6.84939 10.3206 6.70056C10.071 7.12273 10.2061 7.66584 10.6216 7.92243C11.0501 8.18708 11.6228 8.02907 11.8794 7.59572L12.0037 7.38581V6.7134C12.0037 6.64592 11.9146 6.62155 11.8802 6.67966Z" fill="#F1A700"/>
<path d="M12.8987 12.846C12.4024 12.846 12 12.4437 12 11.9473V12.8621C12 13.3584 12.4024 13.7608 12.8987 13.7608C13.3951 13.7608 13.7975 13.3584 13.7975 12.8621V11.9473C13.7975 12.4437 13.3951 12.846 12.8987 12.846Z" fill="#F1A700"/>
</g>
<defs>
<clipPath id="clip0_34388_102808">
<rect width="25" height="25" fill="white"/>
</clipPath>
</defs>
</svg>
